<svg id="Layer_1" data-name="Layer 1" xmlns="http://www.w3.org/2000/svg" viewBox="0 0 640 270.28"><defs><style>.cls-1{fill:#34b296;}.cls-2{fill:none;}.cls-3{fill:#0f2345;}</style></defs><title>Acumen Logo Main</title><path class="cls-1" d="M535.51,163.05l-33,16.69a1,1,0,0,0,.45,1.89H569a1,1,0,0,0,.45-1.89l-33-16.69A1,1,0,0,0,535.51,163.05Z"/><path class="cls-2" d="M478.75,130.66a25.36,25.36,0,0,0-3.06-3.71,25.18,25.18,0,0,0-7.95-5.36A25.07,25.07,0,0,0,453,120.14a25.71,25.71,0,0,0-4.69,1.45,25.15,25.15,0,0,0-11,9.07,24.89,24.89,0,0,0-3.54,8h48.55a24.89,24.89,0,0,0-3.54-8Z"/><path class="cls-3" d="M178.6,127a25.17,25.17,0,0,1,8-5.36,25,25,0,0,1,32.77,13.31,1,1,0,0,0,1.31.53l9.21-3.89a1,1,0,0,0,.54-.55,1,1,0,0,0,0-.76,37,37,0,1,0,0,28.8,1,1,0,0,0,0-.76,1,1,0,0,0-.54-.55l-9.21-3.89a1,1,0,0,0-1.31.53A25,25,0,1,1,178.6,127Z"/><path class="cls-3" d="M299,108.2H289a1,1,0,0,0-1,1v42.38a18,18,0,1,1-36.09,0V109.2a1,1,0,0,0-1-1h-10a1,1,0,0,0-1,1v42.38a30,30,0,1,0,60.09,0V109.2A1,1,0,0,0,299,108.2Z"/><path class="cls-3" d="M517.92,118.7a18.07,18.07,0,0,1,17.73-18A18.31,18.31,0,0,1,554,119v38.3a.91.91,0,0,0,.43.77l10.18,5a.91.91,0,0,0,1.39-.78V118.7a30,30,0,0,0-48.09-24v-5a1,1,0,0,0-1-1h-10a1,1,0,0,0-1,1v72.66a.91.91,0,0,0,1.39.78l10.18-5a.91.91,0,0,0,.43-.77Z"/><path class="cls-3" d="M383.47,108.2A27.62,27.62,0,0,0,362,118.56a27.65,27.65,0,0,0-21.5-10.36A27.12,27.12,0,0,0,324.92,113v-3.81a1,1,0,0,0-1-1h-10a1,1,0,0,0-1,1v71.41a1,1,0,0,0,1,1h10a1,1,0,0,0,1-1V135.75a15.54,15.54,0,0,1,31-1.27c0,.42,0,.85,0,1.27v44.88a1.08,1.08,0,0,0,1.09,1h10a1,1,0,0,0,1-1V135.75c0-.42,0-.85,0-1.27a15.54,15.54,0,0,1,31,1.27v44.88a1,1,0,0,0,1,1h10a1,1,0,0,0,1-1V135.75A27.57,27.57,0,0,0,383.47,108.2Z"/><path class="cls-3" d="M492.1,130.23a36.08,36.08,0,0,0-3.41-6.29,36.94,36.94,0,0,0-4.51-5.47,38.19,38.19,0,0,0-5.47-4.52,37,37,0,0,0-46.86,4.52,36.94,36.94,0,0,0-4.51,5.47,37,37,0,0,0-5.57,13.24,36.89,36.89,0,0,0,0,14.9,36.51,36.51,0,0,0,5.57,13.24,37.25,37.25,0,0,0,10,10,37.47,37.47,0,0,0,6.29,3.41,36.94,36.94,0,0,0,35.09-3.41,37.66,37.66,0,0,0,5.48-4.51,37,37,0,0,0,4.51-5.48,1,1,0,0,0-.27-1.39l-8.28-5.59a1,1,0,0,0-1.39.26,25.36,25.36,0,0,1-3.06,3.71,25.81,25.81,0,0,1-3.7,3.06,25.26,25.26,0,0,1-4.25,2.3,24.63,24.63,0,0,1-4.68,1.45,25.07,25.07,0,0,1-14.77-1.45,24.25,24.25,0,0,1-4.25-2.31,25.06,25.06,0,0,1-9.06-11,24,24,0,0,1-1.24-3.73H494a1,1,0,0,0,1-1v-5a37.14,37.14,0,0,0-.75-7.45A36.59,36.59,0,0,0,492.1,130.23Zm-58.36,8.4a24.89,24.89,0,0,1,3.54-8,25.36,25.36,0,0,1,3.06-3.71,25.29,25.29,0,0,1,7.94-5.36,25.71,25.71,0,0,1,4.69-1.45,25,25,0,0,1,25.78,10.52,24.89,24.89,0,0,1,3.54,8Z"/><path class="cls-3" d="M159.69,180.23l-39.3-91a1,1,0,0,0-.92-.6h-9.18a1,1,0,0,0-.92.6l-39.29,91a1,1,0,0,0,.92,1.4H81.89a1,1,0,0,0,.92-.6l32.07-74.27L147,181a1,1,0,0,0,.92.6h10.89a1,1,0,0,0,.84-.45A1,1,0,0,0,159.69,180.23Z"/><path class="cls-3" d="M128.64,155.23l-4.32-10a1,1,0,0,0-.91-.6h-17a1,1,0,0,0-.92.6l-4.32,10a1,1,0,0,0,.92,1.4h25.69A1,1,0,0,0,128.64,155.23Z"/></svg>