<svg width="191" height="36" viewBox="0 0 191 36" fill="none" xmlns="http://www.w3.org/2000/svg">
<path d="M137.634 26.158L128.469 30.8529C128.401 30.8871 128.347 30.9437 128.315 31.0132C128.283 31.0827 128.275 31.1612 128.293 31.2358C128.311 31.3103 128.353 31.3766 128.412 31.4238C128.472 31.471 128.546 31.4963 128.621 31.4955H146.95C147.025 31.4963 147.099 31.471 147.159 31.4238C147.218 31.3766 147.26 31.3103 147.278 31.2358C147.296 31.1612 147.288 31.0827 147.256 31.0132C147.224 30.9437 147.17 30.8871 147.102 30.8529L137.937 26.158C137.89 26.133 137.838 26.1199 137.786 26.1199C137.733 26.1199 137.681 26.133 137.634 26.158Z" fill="#925EFF"/>
<path d="M36.299 15.7508C36.9473 15.0937 37.7144 14.5695 38.5582 14.2066C40.2933 13.4669 42.2469 13.4548 43.9908 14.1731C45.7347 14.8914 47.1267 16.2815 47.8617 18.0387C47.8927 18.1078 47.9485 18.1623 48.0177 18.1911C48.087 18.2198 48.1645 18.2207 48.2343 18.1934L50.8514 17.0717C50.9191 17.0399 50.9722 16.983 51 16.9128C51.0278 16.8427 51.0282 16.7644 51.0011 16.6939C50.0574 14.4311 48.3712 12.5689 46.2283 11.4228C44.0854 10.2766 41.6175 9.91723 39.2431 10.4054C36.8687 10.8936 34.7338 12.1994 33.2003 14.1014C31.6669 16.0033 30.8291 18.3846 30.8291 20.8413C30.8291 23.2981 31.6669 25.6793 33.2003 27.5813C34.7338 29.4833 36.8687 30.7891 39.2431 31.2773C41.6175 31.7654 44.0854 31.406 46.2283 30.2599C48.3712 29.1138 50.0574 27.2515 51.0011 24.9888C51.0282 24.9183 51.0278 24.84 51 24.7698C50.9722 24.6996 50.9191 24.6428 50.8514 24.6109L48.2343 23.5041C48.1645 23.4769 48.087 23.4777 48.0177 23.5065C47.9485 23.5352 47.8927 23.5897 47.8617 23.6589C47.455 24.6396 46.8392 25.5167 46.0584 26.2273C45.2776 26.9379 44.3512 27.4643 43.3459 27.7686C42.3407 28.0729 41.2814 28.1477 40.2442 27.9874C39.207 27.8272 38.2177 27.436 37.3474 26.8418C36.4771 26.2477 35.7474 25.4655 35.2107 24.5514C34.674 23.6372 34.3437 22.6139 34.2435 21.5548C34.1432 20.4958 34.2756 19.4274 34.631 18.4265C34.9864 17.4255 35.5561 16.5168 36.299 15.7656V15.7508Z" fill="#212121"/>
<path d="M70.4941 10.3508H67.6541C67.5762 10.3508 67.5016 10.3821 67.4466 10.4379C67.3916 10.4937 67.3607 10.5694 67.3607 10.6483V22.8466C67.3607 24.2251 66.8207 25.5472 65.8594 26.522C64.8982 27.4967 63.5945 28.0443 62.2351 28.0443C60.8757 28.0443 59.5719 27.4967 58.6107 26.522C57.6495 25.5472 57.1095 24.2251 57.1095 22.8466V10.6483C57.1095 10.5694 57.0785 10.4937 57.0235 10.4379C56.9685 10.3821 56.8939 10.3508 56.8161 10.3508H53.9848C53.907 10.3508 53.8324 10.3821 53.7773 10.4379C53.7223 10.4937 53.6914 10.5694 53.6914 10.6483V22.8466C53.7329 25.1139 54.6501 27.274 56.2459 28.8626C57.8418 30.4511 59.9886 31.3411 62.2248 31.3411C64.461 31.3411 66.6078 30.4511 68.2036 28.8626C69.7994 27.274 70.7167 25.1139 70.7582 22.8466V10.6483C70.7585 10.5743 70.7317 10.5028 70.6829 10.4478C70.634 10.3928 70.5667 10.3582 70.4941 10.3508Z" fill="#212121"/>
<path d="M132.658 13.3884C132.66 12.0259 133.189 10.7186 134.131 9.74682C135.073 8.77508 136.353 8.21643 137.696 8.19074C138.381 8.18877 139.06 8.32428 139.694 8.58947C140.328 8.85465 140.903 9.24427 141.388 9.73592C141.872 10.2276 142.256 10.8115 142.517 11.4542C142.779 12.0969 142.912 12.7856 142.91 13.4807V24.4949C142.91 24.5393 142.921 24.5829 142.942 24.6218C142.963 24.6608 142.993 24.6938 143.03 24.718L145.923 26.158C145.962 26.183 146.007 26.1969 146.053 26.1984C146.099 26.1998 146.144 26.1887 146.185 26.1663C146.225 26.1438 146.259 26.1108 146.282 26.0706C146.306 26.0304 146.319 25.9846 146.319 25.9378V13.3884C146.32 11.78 145.88 10.203 145.046 8.83466C144.212 7.46637 143.018 6.36104 141.599 5.64296C140.18 4.92488 138.591 4.62251 137.012 4.76986C135.432 4.9172 133.925 5.50841 132.658 6.47702V5.01322C132.658 4.93431 132.627 4.85864 132.572 4.80284C132.517 4.74704 132.443 4.7157 132.365 4.7157H129.525C129.447 4.7157 129.372 4.74704 129.317 4.80284C129.262 4.85864 129.231 4.93431 129.231 5.01322V25.9378C129.232 25.9846 129.244 26.0304 129.268 26.0706C129.291 26.1108 129.325 26.1438 129.366 26.1663C129.406 26.1887 129.452 26.1998 129.498 26.1984C129.544 26.1969 129.589 26.183 129.628 26.158L132.517 24.718C132.555 24.6942 132.585 24.6613 132.606 24.6222C132.627 24.5832 132.638 24.5394 132.638 24.4949L132.658 13.3884Z" fill="#212121"/>
<path d="M94.4729 10.3507C93.3008 10.353 92.144 10.6214 91.0875 11.1363C90.031 11.6511 89.1015 12.3993 88.3674 13.3259C87.6334 12.3991 86.704 11.6508 85.6475 11.136C84.5909 10.6211 83.4341 10.3528 82.2619 10.3507C80.6847 10.3461 79.1438 10.8309 77.8463 11.7402V10.6423C77.8463 10.5634 77.8154 10.4877 77.7603 10.4319C77.7053 10.3761 77.6307 10.3448 77.5529 10.3448H74.7275C74.6497 10.3448 74.575 10.3761 74.52 10.4319C74.465 10.4877 74.4341 10.5634 74.4341 10.6423V31.2099C74.4341 31.2888 74.465 31.3645 74.52 31.4203C74.575 31.4761 74.6497 31.5074 74.7275 31.5074H77.5675C77.6454 31.5074 77.72 31.4761 77.775 31.4203C77.83 31.3645 77.8609 31.2888 77.8609 31.2099V18.2856C77.8131 17.102 78.2309 15.9476 79.0223 15.0763C79.8138 14.2051 80.9142 13.6884 82.0814 13.6398C83.2486 13.5913 84.387 14.0149 85.2462 14.8176C86.1054 15.6202 86.6149 16.7361 86.6628 17.9197C86.6628 18.0416 86.6628 18.1607 86.6628 18.2856V31.2099C86.6666 31.2907 86.7011 31.3668 86.7591 31.4223C86.8171 31.4778 86.894 31.5083 86.9738 31.5074H89.8138C89.8916 31.5074 89.9663 31.4761 90.0213 31.4203C90.0763 31.3645 90.1072 31.2888 90.1072 31.2099V18.2856C90.1072 18.1607 90.1072 18.0416 90.1072 17.9197C90.1551 16.7361 90.6646 15.6202 91.5238 14.8176C92.383 14.0149 93.5214 13.5913 94.6886 13.6398C95.8558 13.6884 96.9562 14.2051 97.7477 15.0763C98.5392 15.9476 98.9569 17.102 98.9091 18.2856V31.2099C98.9091 31.2888 98.94 31.3645 98.995 31.4203C99.05 31.4761 99.1247 31.5074 99.2025 31.5074H102.043C102.12 31.5074 102.195 31.4761 102.25 31.4203C102.305 31.3645 102.336 31.2888 102.336 31.2099V18.2856C102.335 17.2406 102.131 16.2059 101.735 15.241C101.339 14.2762 100.759 13.4 100.029 12.6628C99.2984 11.9257 98.4316 11.342 97.4782 10.9452C96.5248 10.5485 95.5035 10.3464 94.4729 10.3507Z" fill="#212121"/>
<path d="M125.329 16.6939C124.803 15.4281 124.038 14.2781 123.079 13.3081C122.103 12.3185 120.945 11.5334 119.67 10.9978C118.395 10.4622 117.029 10.1865 115.649 10.1865C114.269 10.1865 112.902 10.4622 111.627 10.9978C110.353 11.5334 109.194 12.3185 108.219 13.3081C106.494 15.0566 105.423 17.3592 105.189 19.821C104.955 22.2827 105.573 24.7503 106.936 26.8007C107.313 27.3668 107.742 27.8948 108.219 28.3775C108.695 28.8579 109.215 29.2922 109.771 29.6747C110.333 30.0612 110.932 30.3911 111.557 30.6595C112.852 31.2138 114.242 31.4994 115.647 31.4994C117.052 31.4994 118.443 31.2138 119.737 30.6595C120.363 30.3917 120.962 30.0618 121.524 29.6747C122.081 29.2937 122.601 28.8593 123.076 28.3775C123.552 27.8941 123.983 27.3661 124.361 26.8007C124.401 26.7368 124.415 26.6601 124.4 26.5861C124.386 26.5121 124.345 26.4463 124.285 26.402L121.938 24.7894C121.874 24.7485 121.798 24.7338 121.724 24.7481C121.651 24.7625 121.585 24.805 121.542 24.8668C121.029 25.6325 120.378 26.2928 119.623 26.8126C119.242 27.0718 118.839 27.294 118.417 27.476C117.989 27.6601 117.543 27.8006 117.088 27.8956C116.142 28.0889 115.167 28.0889 114.221 27.8956C113.766 27.801 113.32 27.6604 112.892 27.476C112.048 27.1135 111.281 26.5892 110.633 25.9319C110.307 25.6057 110.013 25.2491 109.753 24.8668C109.498 24.4807 109.279 24.0713 109.099 23.644C108.955 23.2954 108.837 22.9364 108.747 22.5699H125.866C125.944 22.5699 126.019 22.5386 126.074 22.4828C126.129 22.427 126.16 22.3513 126.16 22.2724V20.8413C126.159 20.1208 126.087 19.4022 125.945 18.6962C125.806 18.0098 125.599 17.3391 125.329 16.6939ZM108.752 19.1127C108.843 18.7463 108.961 18.3873 109.105 18.0387C109.463 17.1843 109.98 16.4076 110.627 15.7508C110.949 15.4195 111.302 15.1206 111.681 14.8582C113.047 13.9239 114.692 13.5019 116.332 13.6648C117.973 13.8277 119.505 14.5653 120.667 15.7508C121.315 16.4079 121.832 17.1858 122.19 18.0417C122.335 18.3886 122.453 18.7468 122.542 19.1127H108.752Z" fill="#212121"/>
<path d="M30.9267 31.0939L19.7777 4.89423C19.755 4.84294 19.7184 4.79922 19.6722 4.76816C19.626 4.73709 19.572 4.71994 19.5166 4.71869H16.8995C16.8441 4.71994 16.7901 4.73709 16.7439 4.76816C16.6977 4.79922 16.6611 4.84294 16.6384 4.89423L5.48938 31.0939C5.47314 31.1378 5.46737 31.185 5.47254 31.2316C5.47772 31.2782 5.49369 31.3229 5.51914 31.3621C5.5446 31.4013 5.57883 31.4338 5.61904 31.457C5.65925 31.4802 5.70429 31.4934 5.7505 31.4955H8.83408C8.88919 31.4946 8.94292 31.4779 8.9891 31.4473C9.03529 31.4168 9.07206 31.3737 9.0952 31.323L18.2051 9.9372L27.3004 31.323C27.3235 31.3737 27.3603 31.4168 27.4064 31.4473C27.4526 31.4779 27.5064 31.4946 27.5615 31.4955H30.6568C30.7031 31.4945 30.7485 31.4824 30.7893 31.4602C30.8301 31.4379 30.8651 31.4062 30.8915 31.3676C30.9187 31.3283 30.9362 31.2828 30.9423 31.2351C30.9484 31.1875 30.9431 31.139 30.9267 31.0939Z" fill="#212121"/>
<path d="M22.1132 23.8939L20.8838 21.0168C20.8613 20.966 20.8252 20.9226 20.7795 20.8916C20.7339 20.8605 20.6806 20.8431 20.6256 20.8413H15.7846C15.7292 20.8426 15.6752 20.8597 15.629 20.8908C15.5828 20.9218 15.5462 20.9656 15.5235 21.0168L14.2971 23.8939C14.2803 23.9379 14.2741 23.9855 14.279 24.0325C14.2839 24.0795 14.2997 24.1246 14.3252 24.1642C14.3508 24.2037 14.3852 24.2365 14.4257 24.2599C14.4662 24.2832 14.5117 24.2965 14.5582 24.2985H21.852C21.8986 24.2965 21.944 24.2832 21.9845 24.2599C22.0251 24.2365 22.0595 24.2037 22.085 24.1642C22.1106 24.1246 22.1264 24.0795 22.1313 24.0325C22.1362 23.9855 22.13 23.9379 22.1132 23.8939Z" fill="#212121"/>
<path d="M36.299 15.7508C36.9473 15.0937 37.7144 14.5695 38.5582 14.2066C40.2933 13.4669 42.2469 13.4548 43.9908 14.1731C45.7347 14.8914 47.1267 16.2815 47.8617 18.0387C47.8927 18.1078 47.9485 18.1623 48.0177 18.1911C48.087 18.2198 48.1645 18.2207 48.2343 18.1934L50.8514 17.0717C50.9191 17.0399 50.9722 16.983 51 16.9128C51.0278 16.8427 51.0282 16.7644 51.0011 16.6939C50.0574 14.4311 48.3712 12.5689 46.2283 11.4228C44.0854 10.2766 41.6175 9.91723 39.2431 10.4054C36.8687 10.8936 34.7338 12.1994 33.2003 14.1014C31.6669 16.0033 30.8291 18.3846 30.8291 20.8413C30.8291 23.2981 31.6669 25.6793 33.2003 27.5813C34.7338 29.4833 36.8687 30.7891 39.2431 31.2773C41.6175 31.7654 44.0854 31.406 46.2283 30.2599C48.3712 29.1138 50.0574 27.2515 51.0011 24.9888C51.0282 24.9183 51.0278 24.84 51 24.7698C50.9722 24.6996 50.9191 24.6428 50.8514 24.6109L48.2343 23.5041C48.1645 23.4769 48.087 23.4777 48.0177 23.5065C47.9485 23.5352 47.8927 23.5897 47.8617 23.6589C47.455 24.6396 46.8392 25.5167 46.0584 26.2273C45.2776 26.9379 44.3512 27.4643 43.3459 27.7686C42.3407 28.0729 41.2814 28.1477 40.2442 27.9874C39.207 27.8272 38.2177 27.436 37.3474 26.8418C36.4771 26.2477 35.7474 25.4655 35.2107 24.5514C34.674 23.6372 34.3437 22.6139 34.2435 21.5548C34.1432 20.4958 34.2756 19.4274 34.631 18.4265C34.9864 17.4255 35.5561 16.5168 36.299 15.7656V15.7508Z" fill="#212121"/>
<path d="M161.355 17.7382H158.63C158.473 17.7382 158.345 17.8674 158.345 18.0268V31.2069C158.345 31.3663 158.473 31.4955 158.63 31.4955H161.355C161.513 31.4955 161.64 31.3663 161.64 31.2069V18.0268C161.64 17.8674 161.513 17.7382 161.355 17.7382Z" fill="#212121"/>
<path d="M159.994 10.2853C159.554 10.2847 159.123 10.4165 158.757 10.6641C158.391 10.9117 158.106 11.2639 157.937 11.6761C157.768 12.0883 157.724 12.542 157.81 12.9797C157.895 13.4175 158.107 13.8196 158.418 14.1352C158.73 14.4507 159.126 14.6656 159.558 14.7525C159.99 14.8394 160.437 14.7945 160.843 14.6235C161.25 14.4524 161.597 14.1629 161.841 13.7916C162.086 13.4202 162.216 12.9838 162.215 12.5375C162.213 11.9407 161.979 11.3687 161.563 10.9467C161.147 10.5246 160.583 10.2869 159.994 10.2853Z" fill="#212121"/>
<path d="M152.9 26.9881C152.46 26.9875 152.029 27.1193 151.663 27.3667C151.297 27.6142 151.012 27.9662 150.843 28.3782C150.674 28.7902 150.63 29.2438 150.715 29.6814C150.801 30.1191 151.012 30.5212 151.323 30.8369C151.634 31.1526 152.03 31.3677 152.462 31.455C152.893 31.5422 153.341 31.4977 153.747 31.3271C154.154 31.1565 154.501 30.8675 154.746 30.4965C154.99 30.1256 155.121 29.6895 155.121 29.2433C155.12 28.6459 154.886 28.0732 154.47 27.6506C154.053 27.2279 153.489 26.9897 152.9 26.9881Z" fill="#212121"/>
<path d="M175.236 10.1871C173.16 10.1983 171.135 10.8326 169.414 12.0101C167.694 13.1875 166.356 14.8554 165.569 16.8031C164.782 18.7509 164.582 20.8913 164.994 22.9543C165.406 25.0173 166.411 26.9104 167.882 28.3947C169.354 29.8791 171.226 30.8882 173.262 31.2948C175.299 31.7013 177.408 31.487 179.325 30.679C181.242 29.871 182.879 28.5054 184.031 26.7546C185.183 25.0037 185.798 22.9461 185.798 20.8413C185.81 19.4339 185.545 18.0383 185.018 16.7363C184.491 15.4344 183.712 14.2524 182.728 13.2598C181.744 12.2673 180.575 11.4841 179.288 10.9565C178.001 10.4288 176.624 10.1672 175.236 10.1871ZM182.459 20.8413C182.452 22.2884 182.022 23.7008 181.223 24.9002C180.425 26.0997 179.294 27.0326 177.974 27.581C176.653 28.1295 175.202 28.2691 173.803 27.9821C172.405 27.6951 171.121 26.9944 170.115 25.9685C169.108 24.9426 168.424 23.6373 168.149 22.2175C167.873 20.7977 168.018 19.3268 168.566 17.9906C169.114 16.6544 170.04 15.5127 171.227 14.7095C172.414 13.9063 173.809 13.4777 175.236 13.4777C176.19 13.4697 177.136 13.6549 178.018 14.0226C178.901 14.3903 179.702 14.9331 180.375 15.619C181.048 16.3049 181.579 17.1201 181.937 18.0169C182.294 18.9137 182.472 19.8739 182.459 20.8413Z" fill="#212121"/>
</svg>
